<svg
  width="473.809570"
  height="469.134399"
  viewBox="0 0 473.81 469.134"
  fill="none"
  xmlns="http://www.w3.org/2000/svg"
  xmlns:xlink="http://www.w3.org/1999/xlink"
>
  <defs />
  <rect
    id="icon-base"
    rx="-0.883935"
    width="76.018394"
    height="76.018394"
    transform="translate(336.783844 4.925439) rotate(33.137741)"
    fill="#FFFFFF"
    fill-opacity="0"
  />
  <rect
    id="icon-base"
    x="335.899902"
    y="4.041504"
    width="77.786263"
    height="77.786263"
    transform="rotate(33.1377 335.899902 4.041504)"
    fill="#D9D9D9"
    fill-opacity="0"
  />
  <path
    id="icon"
    d="M335.59 19.32C336.08 18.57 337.09 18.36 337.84 18.85L338.88 19.53C342.9 22.16 345.92 26.08 347.42 30.65C348.2 33.04 348.56 35.55 348.46 38.07L348.36 40.8C348.27 43.04 347.94 45.27 347.37 47.45L346.99 48.92C348.59 49.4 350.16 50.12 351.63 51.08C353.11 52.04 354.39 53.19 355.48 54.46L356.67 53.52C358.43 52.12 360.34 50.92 362.36 49.94L364.82 48.75C367.08 47.65 369.53 46.96 372.03 46.72C376.82 46.25 381.62 47.43 385.65 50.06L386.69 50.74C387.44 51.23 387.65 52.24 387.16 52.99C386.67 53.73 385.67 53.95 384.92 53.46L383.88 52.78C380.46 50.55 376.4 49.55 372.34 49.94C370.22 50.15 368.15 50.73 366.23 51.66L363.78 52.85C361.97 53.73 360.26 54.81 358.69 56.06L357.34 57.12C360.57 62.75 360.6 69.95 356.81 75.75C351.43 84 340.39 86.32 332.14 80.93C323.9 75.55 321.58 64.51 326.96 56.26C330.75 50.46 337.35 47.59 343.8 48.28L344.24 46.62C344.75 44.68 345.04 42.68 345.12 40.68L345.22 37.95C345.3 35.81 345.01 33.69 344.34 31.66C343.07 27.79 340.52 24.47 337.1 22.24L336.06 21.56C335.31 21.08 335.1 20.07 335.59 19.32ZM333.91 78.22C340.66 82.62 349.7 80.72 354.1 73.98C358.5 67.24 356.6 58.2 349.86 53.79C343.11 49.39 334.08 51.29 329.67 58.03C325.27 64.78 327.17 73.82 333.91 78.22Z"
    fill="#FFFFFF"
    fill-opacity="1.000000"
    fill-rule="evenodd"
  />
  <rect
    id="icon-base"
    rx="-0.779293"
    width="67.019180"
    height="67.019180"
    transform="translate(206.512695 0.779293) rotate(0.000000)"
    fill="#FFFFFF"
    fill-opacity="0"
  />
  <rect
    id="icon-base"
    x="205.733398"
    width="68.577766"
    height="68.577766"
    fill="#D9D9D9"
    fill-opacity="0"
  />
  <path
    id="icon"
    d="M244.98 13.46C248.19 9.68 251.38 8.08 253.91 7.47C255.17 7.17 256.23 7.12 257.02 7.14C257.41 7.16 257.73 7.19 257.96 7.22C258.06 7.23 258.14 7.24 258.2 7.25L258.23 7.25L258.24 7.26C260.13 7.28 262.3 8.14 264 9.54C265.74 10.98 267.16 13.13 267.16 15.81C267.16 18.1 266.76 20.2 265.6 21.95C264.43 23.71 262.6 24.94 260.11 25.73C259.36 25.96 258.56 25.54 258.32 24.79C258.08 24.04 258.5 23.24 259.26 23C261.3 22.36 262.5 21.45 263.22 20.37C263.95 19.26 264.31 17.8 264.31 15.81C264.31 14.21 263.46 12.8 262.18 11.75C260.87 10.67 259.29 10.11 258.17 10.11C258.04 10.11 257.89 10.09 257.85 10.09L257.85 10.09L257.8 10.08C257.74 10.07 257.68 10.06 257.61 10.05C257.44 10.03 257.21 10.01 256.92 10C256.35 9.98 255.55 10.02 254.58 10.25C252.67 10.71 250 11.97 247.16 15.31C245.19 17.63 243.75 20.76 242.8 23.82C241.86 26.89 241.45 29.76 241.45 31.49L241.45 60C241.45 60.79 240.81 61.43 240.02 61.43C239.23 61.43 238.59 60.79 238.59 60L238.59 31.43C238.59 29.68 238.2 26.8 237.3 23.72C236.41 20.64 235.05 17.5 233.19 15.17C230.51 11.82 228 10.58 226.23 10.13C225.33 9.9 224.59 9.87 224.06 9.88C223.79 9.89 223.58 9.92 223.42 9.94C223.35 9.94 223.3 9.95 223.25 9.96L223.2 9.97L223.2 9.97C223.17 9.97 223.01 10 222.87 10C221.86 10 220.4 10.54 219.17 11.61C217.97 12.66 217.16 14.07 217.16 15.71C217.16 17.71 217.5 19.2 218.19 20.31C218.87 21.4 219.99 22.29 221.9 22.93C222.65 23.18 223.05 23.99 222.8 24.73C222.55 25.48 221.74 25.89 220.99 25.64C218.61 24.84 216.88 23.6 215.77 21.83C214.68 20.08 214.3 18 214.3 15.71C214.3 13.06 215.63 10.91 217.29 9.46C218.9 8.05 220.97 7.16 222.79 7.14L226.93 7.36C229.36 7.98 232.38 9.6 235.42 13.39C237.6 16.12 239.09 19.64 240.05 22.92C240.05 22.95 240.06 22.97 240.07 23C240.07 22.99 240.07 22.99 240.07 22.98C241.08 19.71 242.67 16.18 244.98 13.46Z"
    fill="#FFFFFF"
    fill-opacity="1.000000"
    fill-rule="nonzero"
  />
  <rect
    id="icon-base"
    rx="-0.779293"
    width="67.019180"
    height="67.019180"
    transform="translate(431.274414 84.943108) rotate(57.741821)"
    fill="#FFFFFF"
    fill-opacity="0"
  />
  <rect
    id="icon-base"
    x="430.495117"
    y="84.163818"
    width="68.577766"
    height="68.577766"
    transform="rotate(57.7418 430.495117 84.163818)"
    fill="#D9D9D9"
    fill-opacity="0"
  />
  <path
    id="icon"
    d="M426.94 98.5C427.73 98.5 428.36 99.15 428.35 99.94L428.35 99.95L428.35 100.03C428.36 100.1 428.36 100.2 428.36 100.35C428.37 100.64 428.4 101.07 428.45 101.63C428.55 102.75 428.76 104.37 429.2 106.37C430.08 110.35 431.87 115.78 435.5 121.54C439.14 127.3 443.27 131.25 446.49 133.76C448.1 135.02 449.48 135.91 450.45 136.48C450.93 136.77 451.31 136.97 451.56 137.11C451.69 137.17 451.79 137.22 451.85 137.25L451.92 137.28L451.93 137.29C452.64 137.62 452.95 138.47 452.62 139.19C452.29 139.9 451.44 140.22 450.73 139.88C450.73 139.88 450.73 139.87 451.33 138.59L450.73 139.88L450.72 139.88L450.71 139.88L450.68 139.86L450.59 139.82C450.5 139.78 450.39 139.72 450.24 139.64C449.94 139.48 449.52 139.25 448.99 138.94C447.93 138.31 446.45 137.35 444.74 136.02C443.07 134.72 441.18 133.07 439.24 131.01L411.03 148.82C412.05 151.46 412.73 153.87 413.18 155.93C413.65 158.06 413.88 159.8 413.99 161.03C414.04 161.64 414.07 162.12 414.08 162.46C414.09 162.63 414.09 162.76 414.09 162.85L414.09 162.96L414.09 162.99L414.09 163L414.09 163L412.67 162.99C414.09 163 414.09 163 414.09 163C414.09 163.79 413.44 164.43 412.65 164.42C411.86 164.41 411.23 163.76 411.24 162.97L411.24 162.96L411.24 162.89C411.24 162.82 411.23 162.71 411.23 162.57C411.22 162.28 411.19 161.85 411.14 161.29C411.04 160.17 410.83 158.54 410.39 156.55C409.51 152.56 407.72 147.13 404.09 141.37C400.45 135.61 396.32 131.66 393.1 129.15C391.49 127.9 390.11 127.01 389.14 126.43C388.66 126.15 388.28 125.94 388.03 125.81C387.9 125.74 387.8 125.69 387.74 125.66L387.68 125.63L387.66 125.62C386.95 125.29 386.64 124.44 386.97 123.73C387.3 123.01 388.15 122.7 388.87 123.03L388.87 123.03L388.88 123.04L388.91 123.05L389 123.1C389.09 123.14 389.2 123.2 389.35 123.27C389.65 123.43 390.07 123.66 390.6 123.98C391.66 124.6 393.14 125.56 394.85 126.9C396.52 128.19 398.41 129.85 400.35 131.9L428.57 114.1C427.55 111.46 426.86 109.04 426.41 106.98C425.94 104.86 425.71 103.11 425.6 101.89C425.55 101.27 425.52 100.79 425.51 100.45C425.5 100.29 425.5 100.16 425.5 100.06L425.5 99.96L425.5 99.93L425.5 99.92L425.5 99.91L425.5 99.91C425.51 99.12 426.15 98.49 426.94 98.5ZM402.28 134.07C403.71 135.76 405.14 137.69 406.51 139.85C407.87 142 408.99 144.12 409.9 146.15L437.31 128.85C435.88 127.15 434.45 125.23 433.09 123.07C431.72 120.91 430.6 118.79 429.69 116.77L402.28 134.07Z"
    fill="#FFFFFF"
    fill-opacity="1.000000"
    fill-rule="evenodd"
  />
  <rect
    id="icon-base"
    rx="-0.779293"
    width="67.019180"
    height="67.019180"
    transform="translate(474.588867 200.278564) rotate(90.000000)"
    fill="#FFFFFF"
    fill-opacity="0"
  />
  <rect
    id="icon-base"
    x="473.809570"
    y="199.499268"
    width="68.577766"
    height="68.577766"
    transform="rotate(90 473.809570 199.499268)"
    fill="#D9D9D9"
    fill-opacity="0"
  />
  <path
    id="icon"
    d="M453.04 259.52C461.96 255.07 468.09 245.86 468.09 235.21C468.09 221.59 458.06 210.31 444.97 208.36C444.14 208.17 443.27 208.07 442.37 208.07C442.18 208.07 442 208.07 441.81 208.08C441.52 208.07 441.23 208.07 440.94 208.07C440.81 208.07 440.67 208.07 440.53 208.07L440.57 208.21C435.11 209.08 430.94 213.8 430.94 219.5C430.94 225.81 436.06 230.93 442.37 230.93C448.69 230.93 453.8 225.81 453.8 219.5C453.8 217.38 453.23 215.4 452.22 213.7C459.96 217.76 465.23 225.87 465.23 235.21C465.23 244.49 460.04 252.55 452.39 256.64L452.37 256.64C452.37 256.64 450.95 257.28 450.95 258.07C450.95 259.55 452.06 259.53 452.85 259.52C452.92 259.52 452.98 259.52 453.04 259.52ZM433.8 219.5C433.8 214.94 437.35 211.22 441.84 210.94C442.72 210.97 443.58 211.05 444.43 211.17C448.17 212.09 450.95 215.47 450.95 219.5C450.95 224.23 447.11 228.07 442.37 228.07C437.64 228.07 433.8 224.23 433.8 219.5ZM429.49 259.83C420.22 255.51 413.8 246.11 413.8 235.21C413.8 228.03 416.59 221.5 421.14 216.65L421.15 216.7C421.41 216.36 421.82 216.14 422.28 216.14C423.07 216.14 423.71 216.78 423.71 217.57C423.71 217.82 423.66 218.11 423.55 218.38C423.43 218.7 422.65 219.45 421.97 220.05C418.64 224.21 416.66 229.48 416.66 235.21C416.66 242.84 420.17 249.65 425.68 254.1C425.38 253.09 425.23 252.03 425.23 250.93C425.23 244.62 430.35 239.5 436.66 239.5C442.97 239.5 448.09 244.62 448.09 250.93C448.09 257.24 442.97 262.36 436.66 262.36C433.94 262.36 431.45 261.41 429.49 259.83ZM436.66 259.5C434.51 259.5 432.55 258.71 431.05 257.41L431.05 257.4L431.02 257.39C429.22 255.82 428.09 253.51 428.09 250.93C428.09 246.19 431.92 242.36 436.66 242.36C441.39 242.36 445.23 246.19 445.23 250.93C445.23 255.66 441.39 259.5 436.66 259.5Z"
    fill="#FFFFFF"
    fill-opacity="1.000000"
    fill-rule="evenodd"
  />
  <rect
    id="icon-base"
    rx="-0.779293"
    width="67.019180"
    height="67.019180"
    transform="translate(463.503662 333.859863) rotate(129.028336)"
    fill="#FFFFFF"
    fill-opacity="0"
  />
  <rect
    id="icon-base"
    x="462.724365"
    y="333.080566"
    width="68.577766"
    height="68.577766"
    transform="rotate(129.028 462.724365 333.080566)"
    fill="#D9D9D9"
    fill-opacity="0"
  />
  <path
    id="icon"
    d="M435.25 353.35C437.29 350.83 438.25 347.6 437.91 344.37C437.64 341.74 436.51 339.27 434.71 337.32L432.84 335.3C431.03 333.35 428.87 331.78 426.46 330.66L421.5 328.34C422.58 327.74 423.56 326.93 424.39 325.91C427.87 321.62 427.21 315.32 422.92 311.85C418.63 308.37 412.33 309.03 408.85 313.32C405.37 317.61 406.03 323.91 410.32 327.38C412.45 329.11 415.07 329.82 417.59 329.57C417.92 329.79 418.26 329.98 418.61 330.15L425.25 333.25C427.33 334.21 429.19 335.57 430.74 337.24L432.62 339.27C434 340.76 434.86 342.65 435.07 344.67C435.33 347.15 434.59 349.62 433.03 351.56L431.78 353.1C431.01 354.04 430.08 354.82 429.03 355.41L428.65 355.62C426.22 356.98 423.29 357.08 420.76 355.91C417.09 354.2 413.99 351.47 411.81 348.06L408.05 342.17L402.22 334.41C401.25 333.12 400 332.06 398.57 331.31L397.93 330.97C395.06 329.46 391.62 329.5 388.78 331.09C386.63 332.29 385.02 334.27 384.29 336.62L384.21 336.91C383.31 339.81 383.73 342.96 385.37 345.53L385.57 345.85C386 346.52 386.88 346.71 387.55 346.29C388.21 345.86 388.41 344.98 387.98 344.31L387.77 343.99C386.59 342.13 386.28 339.85 386.94 337.75L387.02 337.47C387.54 335.82 388.67 334.42 390.18 333.58C392.17 332.47 394.58 332.44 396.6 333.5L397.24 333.83C398.3 334.39 399.22 335.18 399.94 336.13L405.7 343.8L409.4 349.6C411.87 353.47 415.39 356.56 419.56 358.5C422.91 360.06 426.81 359.92 430.05 358.12L430.42 357.91C431.79 357.14 433.01 356.12 434 354.9L435.25 353.35ZM411.9 325.44C408.68 322.83 408.18 318.11 410.79 314.89C413.4 311.67 418.12 311.18 421.34 313.79C424.56 316.4 425.05 321.12 422.45 324.34C419.84 327.56 415.11 328.05 411.9 325.44Z"
    fill="#FFFFFF"
    fill-opacity="1.000000"
    fill-rule="evenodd"
  />
  <rect
    id="icon-base"
    rx="-0.779293"
    width="67.019180"
    height="67.019180"
    transform="translate(390.589600 423.319824) rotate(149.999985)"
    fill="#FFFFFF"
    fill-opacity="0"
  />
  <rect
    id="icon-base"
    x="389.810303"
    y="422.540527"
    width="68.577766"
    height="68.577766"
    transform="rotate(150 389.810303 422.540527)"
    fill="#D9D9D9"
    fill-opacity="0"
  />
  <path
    id="icon"
    d="M378 417.44C377.71 418.18 376.88 418.54 376.15 418.25L369.25 415.56L368.21 421.46C367.75 424.09 365.02 425.66 362.51 424.74L356.89 422.67L355.86 428.6C355.41 431.24 352.67 432.81 350.16 431.89L343.88 429.58C342.94 429.23 342.15 428.57 341.65 427.7L340.3 425.37C339.93 426.64 339.58 427.69 339.19 428.56C338.44 430.21 337.49 431.29 335.98 432.17C335 432.73 333.62 432.91 332.19 432.72C330.72 432.52 329.07 431.91 327.46 430.74C324.22 428.39 321.27 423.83 320.14 415.96C319.31 410.21 320.48 405.37 322.44 401.55C320.54 401.28 318.24 401.54 315.5 402.74C314.78 403.05 313.94 402.72 313.62 402C313.3 401.28 313.63 400.43 314.35 400.12C318.08 398.49 321.3 398.29 323.98 398.94C326.26 395.59 329.02 393.29 331.01 392.14C331.7 391.75 332.57 391.98 332.97 392.66C333.36 393.35 333.13 394.22 332.44 394.61C330.85 395.53 328.65 397.35 326.74 399.98C326.74 399.98 326.75 399.99 326.76 399.99C329.77 401.58 331.67 404.21 332.54 406.21L344.12 426.27C344.29 426.56 344.55 426.78 344.86 426.9L351.15 429.21C351.99 429.52 352.9 428.99 353.05 428.11L354.28 421L339.53 395.47C339.14 394.79 339.37 393.91 340.06 393.52C340.74 393.12 341.61 393.36 342.01 394.04L356.75 419.58L363.5 422.06C364.33 422.36 365.24 421.84 365.4 420.96L366.65 413.86L351.91 388.33C351.51 387.64 351.75 386.77 352.43 386.37C353.11 385.98 353.99 386.21 354.38 386.9L369.13 412.45L377.19 415.59C377.92 415.88 378.29 416.71 378 417.44ZM330.01 407.55C330.02 407.56 330.02 407.57 330.03 407.58L338.3 421.9C337.59 424.54 337.12 426.2 336.58 427.38C336.06 428.53 335.51 429.14 334.55 429.69C334.29 429.84 333.61 430.03 332.58 429.89C331.59 429.75 330.38 429.33 329.14 428.43C326.69 426.65 324.02 422.9 322.96 415.55C322.2 410.25 323.37 405.84 325.21 402.41C325.28 402.44 325.35 402.48 325.42 402.52C327.25 403.48 328.57 404.96 329.37 406.29L329.3 406.32L330.01 407.55Z"
    fill="#FFFFFF"
    fill-opacity="1.000000"
    fill-rule="evenodd"
  />
  <rect
    id="icon-base"
    rx="-0.779293"
    width="67.019180"
    height="67.019180"
    transform="translate(275.090576 469.913696) rotate(-179.999985)"
    fill="#FFFFFF"
    fill-opacity="0"
  />
  <rect
    id="icon-base"
    x="274.311279"
    y="469.134399"
    width="68.577766"
    height="68.577766"
    transform="rotate(-180 274.311279 469.134399)"
    fill="#D9D9D9"
    fill-opacity="0"
  />
  <path
    id="icon"
    d="M228.59 427.7C229.38 427.7 230.02 427.06 230.02 426.27C230.02 425.48 229.38 424.84 228.59 424.84L217.16 424.84C216.37 424.84 215.73 425.48 215.73 426.27C215.73 427.06 216.37 427.7 217.16 427.7L224.7 427.7C221.78 431.17 220.02 435.66 220.02 440.56C220.02 451.6 228.97 460.56 240.02 460.56C251.06 460.56 260.02 451.6 260.02 440.56C260.02 435.66 258.26 431.17 255.34 427.7L262.88 427.7C263.67 427.7 264.31 427.06 264.31 426.27C264.31 425.48 263.67 424.84 262.88 424.84L251.45 424.84C250.66 424.84 250.02 425.48 250.02 426.27C250.02 427.06 250.66 427.7 251.45 427.7L251.36 427.7C254.92 430.84 257.16 435.44 257.16 440.56C257.16 450.02 249.49 457.7 240.02 457.7C230.55 457.7 222.87 450.02 222.87 440.56C222.87 435.44 225.12 430.84 228.68 427.7L228.59 427.7ZM264.31 414.84C264.31 415.63 263.67 416.27 262.88 416.27L217.16 416.27C216.37 416.27 215.73 415.63 215.73 414.84C215.73 414.05 216.37 413.41 217.16 413.41L262.88 413.41C263.67 413.41 264.31 414.05 264.31 414.84Z"
    fill="#FFFFFF"
    fill-opacity="1.000000"
    fill-rule="evenodd"
  />
  <rect
    id="icon-base"
    rx="-0.779293"
    width="67.019180"
    height="67.019180"
    transform="translate(152.126221 452.932739) rotate(-149.999985)"
    fill="#FFFFFF"
    fill-opacity="0"
  />
  <rect
    id="icon-base"
    x="151.346924"
    y="452.153442"
    width="68.577766"
    height="68.577766"
    transform="rotate(-150 151.346924 452.153442)"
    fill="#D9D9D9"
    fill-opacity="0"
  />
  <path
    id="icon"
    d="M143.27 435.32C143.39 436.1 144.12 436.64 144.9 436.52C145.68 436.4 146.22 435.67 146.1 434.89L144.79 426.34L159.55 400.79L157.07 399.37L142.33 424.9L135.55 427.37C134.71 427.67 133.81 427.15 133.65 426.27L132.43 419.19L147.17 393.65L144.7 392.22L129.96 417.76L123.19 420.25C122.35 420.56 121.44 420.03 121.29 419.15L120.14 412.55C120.09 412.22 120.15 411.88 120.32 411.59L131.23 392.7L131.23 392.69L134.58 386.88C135.33 385.59 135.68 384.1 135.58 382.61C135.42 380.08 134 377.8 131.81 376.53L129.71 375.32L131.51 372.21C131.64 371.99 131.43 371.72 131.19 371.79L124.32 373.63C124.17 373.67 124.08 373.82 124.12 373.98L125.96 380.84C126.03 381.09 126.36 381.13 126.48 380.91L128.28 377.8L130.38 379.01C131.75 379.8 132.63 381.22 132.73 382.79C132.79 383.72 132.57 384.65 132.11 385.45L117.84 410.17C117.34 411.03 117.16 412.05 117.33 413.04L118.47 419.64C118.93 422.27 121.66 423.85 124.17 422.93L129.82 420.85L130.84 426.76C131.29 429.39 134.02 430.97 136.53 430.05L142.16 428L143.27 435.32Z"
    fill="#FFFFFF"
    fill-opacity="1.000000"
    fill-rule="nonzero"
  />
  <rect
    id="icon-base"
    rx="-0.779293"
    width="67.019180"
    height="67.019180"
    transform="translate(90.399406 376.224976) rotate(-164.999985)"
    fill="#FFFFFF"
    fill-opacity="0"
  />
  <rect
    id="icon-base"
    x="89.620117"
    y="375.445679"
    width="68.577766"
    height="68.577766"
    transform="rotate(-165 89.620117 375.445679)"
    fill="#D9D9D9"
    fill-opacity="0"
  />
  <path
    id="icon"
    d="M38.72 350.54C38.74 350.72 38.8 350.9 38.9 351.06L39.76 351.73L61.84 357.65C62.61 357.85 63.39 357.4 63.59 356.64C63.8 355.87 63.34 355.09 62.58 354.89L43.83 349.86L76.36 331.09L82.71 342.1C83.11 342.78 83.98 343.01 84.66 342.62C85.35 342.23 85.58 341.35 85.19 340.67L78.83 329.66L96.84 319.26C97.52 318.86 97.76 317.99 97.36 317.31C96.97 316.62 96.09 316.39 95.41 316.78L77.4 327.18L71.04 316.17C70.65 315.49 69.78 315.25 69.09 315.65C68.41 316.04 68.17 316.92 68.57 317.6L74.93 328.61L42.41 347.39L47.06 330.02C47.26 329.26 46.81 328.47 46.05 328.27C45.29 328.06 44.5 328.52 44.3 329.28L38.75 349.98C38.7 350.17 38.69 350.36 38.72 350.54Z"
    fill="#FFFFFF"
    fill-opacity="1.000000"
    fill-rule="nonzero"
  />
  <rect
    id="icon-base"
    rx="-0.779293"
    width="67.019180"
    height="67.019180"
    transform="translate(0.779293 268.855957) rotate(-90.000000)"
    fill="#FFFFFF"
    fill-opacity="0"
  />
  <rect
    id="icon-base"
    y="268.076660"
    width="68.577766"
    height="68.577766"
    transform="rotate(-90 0.000000 268.076660)"
    fill="#D9D9D9"
    fill-opacity="0"
  />
  <path
    id="icon"
    d="M11.42 258.07L12.16 255.87C12.61 254.5 13.39 253.25 14.41 252.23C16.16 250.48 18.53 249.5 21 249.5L21.43 249.5L41.43 249.5M21.43 249.5L15.65 244.88C14.74 244.15 13.96 243.29 13.31 242.33C12.08 240.48 11.42 238.31 11.42 236.09L11.42 234.67C11.42 233.15 11.78 231.64 12.46 230.28L12.83 229.54C13.76 227.68 15.39 226.27 17.36 225.61C18.16 225.35 19 225.21 19.84 225.21L37.62 225.21C38.25 225.21 38.88 225.16 39.5 225.06L43.66 224.36C44.62 224.2 45.55 223.92 46.42 223.52M46.42 223.52C47.61 222.98 48.7 222.22 49.63 221.29L50.3 220.63C51.94 218.99 52.86 216.76 52.86 214.45L52.86 213.54C52.86 211.03 51.54 208.71 49.39 207.41C47.13 206.06 44.3 206.06 42.04 207.41C39.89 208.71 38.57 211.03 38.57 213.54L38.57 213.62C38.57 215.55 39.34 217.41 40.7 218.77L42.22 220.29C42.64 220.71 43.1 221.1 43.58 221.45L46.42 223.52L57.26 231.4C58.12 232.03 58.82 232.85 59.3 233.81C59.76 234.73 60 235.75 60 236.78L60 242.36"
    stroke="#FFFFFF"
    stroke-opacity="1.000000"
    stroke-width="1.558586"
    stroke-linecap="round"
  />
  <rect
    id="icon-base"
    rx="-0.779293"
    width="67.019180"
    height="67.019180"
    transform="translate(11.689449 139.657593) rotate(-60.000000)"
    fill="#FFFFFF"
    fill-opacity="0"
  />
  <rect
    id="icon-base"
    x="10.910156"
    y="138.878296"
    width="68.577766"
    height="68.577766"
    transform="rotate(-60 10.910156 138.878296)"
    fill="#D9D9D9"
    fill-opacity="0"
  />
  <path
    id="icon"
    d="M50.56 120.86C49.62 120.97 49.05 121.96 49.42 122.84L52.04 128.97C53.16 131.6 51.45 134.57 48.61 134.91L42.35 135.66C41.35 135.78 40.78 136.86 41.25 137.75L45.62 145.97C46 146.67 45.73 147.53 45.03 147.9C44.34 148.27 43.47 148.01 43.1 147.31L38.73 139.09C37.32 136.43 39.01 133.18 42 132.82L48.27 132.07C49.21 131.96 49.78 130.97 49.41 130.09L46.79 123.96C45.67 121.33 47.38 118.36 50.22 118.02L56.84 117.22C57.79 117.11 58.36 116.12 57.98 115.24L55.5 109.44C54.32 106.67 56.29 103.58 59.3 103.47L68.6 103.15C69.39 103.12 70.05 103.74 70.08 104.52C70.11 105.31 69.49 105.98 68.7 106L59.4 106.33C58.39 106.36 57.74 107.39 58.13 108.32L60.61 114.12C61.73 116.75 60.02 119.72 57.18 120.06L50.56 120.86ZM64.17 128.71C63.23 128.83 62.66 129.82 63.03 130.69L65.65 136.83C66.77 139.45 65.06 142.42 62.22 142.76L55.96 143.52C54.96 143.64 54.39 144.72 54.86 145.61L59.24 153.83C59.61 154.53 59.34 155.39 58.64 155.76C57.95 156.13 57.08 155.87 56.71 155.17L52.34 146.95C50.93 144.29 52.62 141.04 55.61 140.68L61.88 139.93C62.82 139.81 63.4 138.82 63.02 137.95L60.4 131.82C59.28 129.19 60.99 126.22 63.83 125.88L70.45 125.08C71.4 124.97 71.97 123.98 71.59 123.1L69.11 117.3C67.93 114.53 69.9 111.44 72.91 111.33L82.21 111.01C83 110.98 83.66 111.59 83.69 112.38C83.72 113.17 83.1 113.83 82.31 113.86L73.01 114.19C72 114.22 71.35 115.25 71.74 116.18L74.22 121.98C75.34 124.61 73.63 127.58 70.79 127.92L64.17 128.71Z"
    fill="#FFFFFF"
    fill-opacity="1.000000"
    fill-rule="evenodd"
  />
  <rect
    id="icon-base"
    rx="-0.779293"
    width="67.019180"
    height="67.019180"
    transform="translate(89.619377 44.419918) rotate(-30.000000)"
    fill="#FFFFFF"
    fill-opacity="0"
  />
  <rect
    id="icon-base"
    x="88.840088"
    y="43.640625"
    width="68.577766"
    height="68.577766"
    transform="rotate(-30 88.840088 43.640625)"
    fill="#D9D9D9"
    fill-opacity="0"
  />
  <path
    id="icon"
    d="M109.25 40.27C109.69 39.61 110.57 39.43 111.23 39.87L116.8 43.55C121.54 46.68 125.53 50.7 128.58 55.33L138.49 49.61C136 44.66 134.5 39.19 134.16 33.52L133.76 26.86C133.72 26.07 134.32 25.39 135.1 25.35C135.89 25.3 136.57 25.9 136.62 26.69L137.02 33.35C137.33 38.57 138.69 43.61 140.96 48.18L148.38 43.9C149.06 43.51 149.94 43.74 150.33 44.43C150.73 45.11 150.49 45.98 149.81 46.38L142.33 50.7C144.97 55.16 148.53 59.1 152.83 62.23L160.32 67.68C160.96 68.15 161.1 69.04 160.63 69.68C160.17 70.32 159.27 70.46 158.64 69.99L151.14 64.54C146.52 61.18 142.7 56.93 139.85 52.12L130.07 57.77C132.81 62.64 134.58 68.07 135.18 73.76L136.15 82.98C136.24 83.76 135.67 84.46 134.88 84.55C134.1 84.63 133.39 84.06 133.31 83.28L132.34 74.06C131.78 68.77 130.14 63.73 127.59 59.2L120.11 63.52C119.43 63.92 118.56 63.68 118.16 63C117.77 62.31 118 61.44 118.68 61.05L126.1 56.77C123.27 52.51 119.6 48.81 115.23 45.93L109.66 42.25C109 41.82 108.82 40.93 109.25 40.27Z"
    fill="#FFFFFF"
    fill-opacity="1.000000"
    fill-rule="nonzero"
  />
  <defs>
    <filter
      id="filter_2097_2517_dd"
      x="0.000000"
      y="0.000000"
      width="565.646484"
      height="565.646484"
      filterUnits="userSpaceOnUse"
      color-interpolation-filters="sRGB"
    >
      <feFlood flood-opacity="0" result="BackgroundImageFix" />
      <feBlend
        mode="normal"
        in="SourceGraphic"
        in2="BackgroundImageFix"
        result="shape"
      />
      <feGaussianBlur stdDeviation="51.7044" result="effect_layerBlur_1" />
    </filter>
  </defs>
</svg>
