<svg
  width="287"
  height="289"
  viewBox="0 0 287 289"
  fill="none"
  xmlns="http://www.w3.org/2000/svg"
>
  <path
    d="M238.553 49.3093L180.033 98.1464C177.433 95.5179 173.663 88.1379 179.378 79.646C186.522 69.0312 193.075 67.6073 192.124 53.7025C191.174 39.7976 189.513 36.9219 200.334 26.5439C189.928 30.4883 187.734 35.8844 180.917 55.7495C177.45 66.6011 165.442 66.7507 160.433 72.8884C156.425 77.7986 153.269 83.8096 152.192 86.2014L143.378 8.10922L134.611 86.9149C133.029 82.8138 127.547 73.3547 118.273 68.3274C106.679 62.0433 101.757 52.4972 100.51 43.1878C99.2642 33.8785 93.2448 27.0304 84.9729 26.4977L85.0765 26.5987C91.1106 32.4835 96.2568 37.5024 93.9304 59.3764C93.2201 70.4056 104.249 71.1159 106.474 79.5654C108.698 88.0148 110.477 89.0523 108.047 98.1249C101.761 92.5518 64.5099 62.4039 46.67 48.0266L96.1894 110.282C92.108 111.557 82.9015 113.118 78.7266 109.157C73.508 104.207 67.5478 96.4396 62.0332 96.0844C56.5186 95.7293 41.5763 98.4586 36.2393 95.3462C31.9697 92.8562 26.8894 87.6684 24.8829 85.3857C23.4207 88.9832 24.2972 97.3458 39.5013 102.017C58.5064 107.855 58.3885 109.693 65.2086 118.439C72.0287 127.184 78.0485 134.032 86.1423 137.322C76.5363 137.442 30.1573 142.023 8.16858 144.298L86.0552 153.006C82.0132 153.669 72.8682 157.141 68.6235 165.727C63.3177 176.46 55.5506 182.421 50.8367 183.963C46.1229 185.505 29.5791 184.44 25.7563 200.806C35.4209 194.045 39.334 190.605 55.7002 194.428C67.5301 197.036 76.0667 179.127 81.6405 178.563C87.2143 177.999 89.9716 178.177 95.427 179.451C91.3718 185.097 60.9511 222.761 46.2477 240.888L108.503 191.368C110.085 195.469 111.659 205.415 105.304 212.389C97.3588 221.107 95.4615 221.907 94.2464 226.444C93.0313 230.98 96.6206 246.901 93.5081 252.238C90.3957 257.575 86.4825 261.014 84.5851 261.815C93.0346 259.59 94.7544 261.547 102.786 237.146C108.329 222.736 115.741 222.29 120.573 218.91C125.405 215.53 133.291 207.731 134.506 203.195C135.124 216.525 140.066 260.158 142.46 280.309L151.109 203.341C153.857 208.44 161.695 219.528 171.064 223.085C180.018 227.353 183.844 239.597 184.468 244.252C185.091 248.907 187.019 261.951 200.806 262.839C191.465 250.24 189.272 255.636 191.552 234.556C193.3 221.748 186.125 218.517 182.685 214.604C179.246 210.691 173.286 202.924 177.554 193.969C184.717 197.384 220.962 226.913 238.19 241.251L190.39 180.952C193.266 179.292 200.256 176.789 205.214 180.061C211.411 184.152 217.371 191.919 223.746 193.253C230.12 194.586 239.548 191.502 246.782 193.813C252.57 195.663 258.603 201.343 260.896 203.951C262.378 200.047 261.517 191.44 246.218 188.24C227.095 184.239 222.054 176.531 220.452 172.736C218.851 168.942 210.429 156.402 202.276 154.031C216.436 151.989 258.972 147.838 278.471 146.017L202.422 137.428C206.296 134.601 214.458 128.235 216.118 125.389C218.193 121.831 224.537 109.319 231.148 106.976C237.759 104.633 261.952 101.576 260.141 86.6931C254.212 92.7717 250.181 98.0495 241.049 96.5385C231.917 95.0275 226.462 93.7532 221.63 97.1336C216.797 100.514 207.815 111.011 204.139 110.774C200.462 110.537 198.445 113.176 190.411 108.967L238.553 49.3093Z"
    stroke="url(#paint0_linear_0_8447)"
    stroke-width="1.79648"
  />
  <circle
    cx="143.809"
    cy="144.728"
    r="60.7862"
    transform="rotate(3.68487 143.809 144.728)"
    fill="black"
  />
  <g filter="url(#filter0_i_0_8447)">
    <circle
      cx="143.809"
      cy="144.728"
      r="60.7862"
      transform="rotate(3.68487 143.809 144.728)"
      fill="#0F0F10"
    />
  </g>
  <circle
    cx="143.809"
    cy="144.728"
    r="60.7862"
    transform="rotate(3.68487 143.809 144.728)"
    stroke="url(#paint1_linear_0_8447)"
    stroke-width="1.79648"
  />
  <path
    d="M154.723 175.887C154.071 176.46 152.007 177.927 148.972 179.208C145.177 180.809 142.301 182.47 139.603 181.373C136.905 180.277 130.708 176.186 128.87 176.067C127.032 175.949 134.384 176.423 137.26 174.762C140.136 173.101 140.076 174.02 141.855 175.058C143.634 176.095 145.65 173.456 146.569 173.516C147.488 173.575 150.068 176.51 150.987 176.569"
    stroke="#A486FF"
    stroke-width="1.79648"
  />
  <path
    d="M140.101 130.645C140.586 137.444 140.946 151.926 138.503 155.461C136.06 158.995 137.822 161.262 139.008 161.954"
    stroke="#A486FF"
    stroke-width="1.79648"
  />
  <path
    d="M151.43 155.371C152.29 156.349 157.568 160.381 153.714 162.901C149.86 165.422 148.2 162.546 146.243 164.266C144.286 165.986 144.109 168.743 141.411 167.646C138.713 166.55 134.176 165.334 132.397 164.297C130.618 163.259 128.216 157.567 132.011 155.966"
    stroke="#A486FF"
    stroke-width="1.79648"
  />
  <path
    d="M152.791 134.231C155.745 131.345 162.562 125.816 166.191 126.788C169.82 127.76 175.847 134.486 178.407 137.727"
    stroke="#A486FF"
    stroke-width="1.79648"
  />
  <path
    d="M174.908 134.733C172.003 132.084 164.027 128.864 155.371 137.166"
    stroke="#A486FF"
    stroke-width="1.79648"
  />
  <path
    d="M132.512 133.848C130.811 131.585 125.745 127.137 119.08 127.446C112.415 127.755 109.129 133.88 108.319 136.905C110.621 134.592 116.133 130.209 119.763 131.181C123.392 132.153 129.003 135.776 131.356 137.465"
    stroke="#A486FF"
    stroke-width="1.79648"
  />
  <path
    d="M150.862 121.186C155.062 118.073 166.652 113.897 179.413 122.102"
    stroke="#A486FF"
    stroke-width="1.79648"
  />
  <path
    d="M135.119 122.018C132.174 119.983 124.789 116.185 118.812 117.276C112.835 118.368 108.12 120.895 106.509 122.021"
    stroke="#A486FF"
    stroke-width="1.79648"
  />
  <circle
    cx="117.687"
    cy="134.739"
    r="4.60501"
    transform="rotate(3.68487 117.687 134.739)"
    fill="#A486FF"
  />
  <circle
    cx="165.599"
    cy="135.979"
    r="4.60501"
    transform="rotate(3.68487 165.599 135.979)"
    fill="#A486FF"
  />
  <defs>
    <filter
      id="filter0_i_0_8447"
      x="82.1218"
      y="83.0413"
      width="123.373"
      height="123.373"
      filterUnits="userSpaceOnUse"
      color-interpolation-filters="sRGB"
    >
      <feFlood flood-opacity="0" result="BackgroundImageFix" />
      <feBlend
        mode="normal"
        in="SourceGraphic"
        in2="BackgroundImageFix"
        result="shape"
      />
      <feColorMatrix
        in="SourceAlpha"
        type="matrix"
        values="0 0 0 0 0 0 0 0 0 0 0 0 0 0 0 0 0 0 127 0"
        result="hardAlpha"
      />
      <feOffset />
      <feGaussianBlur stdDeviation="14.3719" />
      <feComposite in2="hardAlpha" operator="arithmetic" k2="-1" k3="1" />
      <feColorMatrix
        type="matrix"
        values="0 0 0 0 0.580392 0 0 0 0 0.47451 0 0 0 0 0.905882 0 0 0 0.32 0"
      />
      <feBlend mode="normal" in2="shape" result="effect1_innerShadow_0_8447" />
    </filter>
    <linearGradient
      id="paint0_linear_0_8447"
      x1="36.7316"
      y1="2.32129e-06"
      x2="242.917"
      y2="368.294"
      gradientUnits="userSpaceOnUse"
    >
      <stop stop-color="#A486FF" />
      <stop offset="1" stop-color="#352959" />
    </linearGradient>
    <linearGradient
      id="paint1_linear_0_8447"
      x1="143.809"
      y1="83.9416"
      x2="143.809"
      y2="205.514"
      gradientUnits="userSpaceOnUse"
    >
      <stop stop-color="#A486FF" />
      <stop offset="1" stop-color="#6148AC" />
    </linearGradient>
  </defs>
</svg>
